<svg width="180" height="180" viewBox="0 0 180 180" fill="none" xmlns="http://www.w3.org/2000/svg">
<path d="M86.7369 31.1579H30.1579V33.4211C35.4386 33.4211 41.4737 34.9298 45.2456 38.7018C48.2632 41.7193 53.0409 49.0117 55.0526 52.2807L79.9474 90.7544C68.883 106.094 45.6982 138.281 41.4737 144.316C36.193 151.86 27.1404 162.421 20.3509 167.702C14.9193 171.926 6.52047 172.982 3 172.982V175.246C4.25731 175.497 8.12983 176 13.5614 176C30.4597 176 46.7544 158.398 52.7895 149.596L86.7369 101.316C94.7836 113.386 110.877 135.867 110.877 141.298C110.877 146.73 105.345 148.088 102.579 148.088V149.596H159.912V148.088C148.597 148.088 143.316 142.053 138.035 135.263C133.811 129.832 115.152 100.31 106.351 86.2281C117.918 69.6316 141.958 35.0807 145.579 29.6491C150.105 22.8596 156.14 16.0702 162.175 11.5439C167.004 7.92281 173.743 6.51462 176.509 6.26316V4C152.368 4 135.269 22.1053 129.737 31.1579L99.5614 75.6667C92.5205 65.3567 78.4386 44.7368 78.4386 38.7018C78.4386 33.8737 83.9708 33.6725 86.7369 34.1754V31.1579Z" fill="white"/>
</svg>
